<svg width="42" height="42" viewBox="0 0 42 42" fill="none" xmlns="http://www.w3.org/2000/svg">
<rect x="0.5" y="0.5" width="41" height="41" stroke="#7E3D3E"/>
<path d="M26.1153 14.9204H15.8848C13.8775 14.9204 12.25 16.5304 12.25 18.5149V23.5724C12.25 25.5587 13.8775 27.1669 15.8848 27.1669H26.1153C28.1225 27.1669 29.75 25.5569 29.75 23.5724V18.5149C29.75 16.5287 28.1225 14.9204 26.1153 14.9204ZM23.6582 21.2904L18.872 23.5479C18.8427 23.5617 18.8104 23.568 18.7781 23.566C18.7458 23.5641 18.7145 23.554 18.6871 23.5367C18.6597 23.5194 18.6371 23.4955 18.6214 23.4672C18.6057 23.4389 18.5974 23.407 18.5972 23.3747V18.7197C18.5975 18.6869 18.6062 18.6547 18.6224 18.6262C18.6387 18.5977 18.6619 18.5738 18.6899 18.5568C18.718 18.5398 18.7499 18.5302 18.7827 18.529C18.8155 18.5278 18.848 18.535 18.8772 18.5499L23.6617 20.9474C23.6932 20.9639 23.7195 20.9887 23.7377 21.0191C23.756 21.0496 23.7654 21.0845 23.7651 21.12C23.7647 21.1555 23.7545 21.1902 23.7357 21.2203C23.7168 21.2503 23.69 21.2746 23.6582 21.2904Z" fill="#7E3D3E"/>
</svg>
